<?xml version="1.0" encoding="UTF-8" standalone="no"?>
<!-- Created with Inkscape (http://www.inkscape.org/) -->

<svg
   version="1.1"
   id="svg1"
   width="1365.3333"
   height="1365.3333"
   viewBox="0 0 1365.3333 1365.3333"
   sodipodi:docname="playit.svg"
   xml:space="preserve"
   inkscape:version="1.4.2 (ebf0e940d0, 2025-05-08)"
   xmlns:inkscape="http://www.inkscape.org/namespaces/inkscape"
   xmlns:sodipodi="http://sodipodi.sourceforge.net/DTD/sodipodi-0.dtd"
   xmlns="http://www.w3.org/2000/svg"
   xmlns:svg="http://www.w3.org/2000/svg"><defs
     id="defs1"><inkscape:path-effect
       effect="fillet_chamfer"
       id="path-effect10"
       is_visible="true"
       lpeversion="1"
       nodesatellites_param="F,0,0,1,0,0,0,1 @ F,0,0,1,0,0,0,1 @ F,0,0,1,0,0,0,1 @ F,0,0,1,0,0,0,1 @ F,0,0,1,0,0,0,1 @ F,0,0,1,0,0,0,1 @ F,0,0,1,0,0,0,1 @ F,0,0,1,0,0,0,1"
       radius="0"
       unit="px"
       method="auto"
       mode="F"
       chamfer_steps="1"
       flexible="false"
       use_knot_distance="true"
       apply_no_radius="true"
       apply_with_radius="true"
       only_selected="false"
       hide_knots="false" /><inkscape:path-effect
       effect="fillet_chamfer"
       id="path-effect9"
       is_visible="true"
       lpeversion="1"
       nodesatellites_param="F,0,0,1,0,0,0,1 @ F,0,0,1,0,0,0,1 @ F,0,0,1,0,0,0,1 @ F,0,0,1,0,0,0,1 @ F,0,0,1,0,0,0,1 @ F,0,0,1,0,0,0,1 @ F,0,0,1,0,0,0,1 @ F,0,0,1,0,0,0,1"
       radius="0"
       unit="px"
       method="auto"
       mode="F"
       chamfer_steps="1"
       flexible="false"
       use_knot_distance="true"
       apply_no_radius="true"
       apply_with_radius="true"
       only_selected="false"
       hide_knots="false" /></defs><sodipodi:namedview
     id="namedview1"
     pagecolor="#ffffff"
     bordercolor="#000000"
     borderopacity="0.25"
     inkscape:showpageshadow="2"
     inkscape:pageopacity="0.0"
     inkscape:pagecheckerboard="0"
     inkscape:deskcolor="#d1d1d1"
     inkscape:zoom="0.60231829"
     inkscape:cx="434.15583"
     inkscape:cy="801.07147"
     inkscape:window-width="2560"
     inkscape:window-height="1369"
     inkscape:window-x="0"
     inkscape:window-y="0"
     inkscape:window-maximized="1"
     inkscape:current-layer="g10" /><g
     id="g10"
     transform="translate(14.997985,-46.48699)"
     style="fill:#e4d2ff;fill-opacity:1"><path
       style="fill:#e4d2ff;fill-opacity:1;stroke:#d5d5d5"
       id="rect1"
       width="1232.674"
       height="313.45139"
       x="15.428542"
       y="1020.337"
       inkscape:path-effect="#path-effect9"
       sodipodi:type="rect"
       d="M 30.428542,1020.337 H 1233.1025 c 8.31,0 15,6.69 15,15 v 283.4514 c 0,8.31 -6.69,15 -15,15 H 30.428542 c -8.31,0 -15,-6.69 -15,-15 V 1035.337 c 0,-8.31 6.69,-15 15,-15 z"
       rx="15"
       ry="15"
       transform="matrix(0.92606017,0,0,0.7436538,40.901756,361.91966)" /><rect
       style="fill:#e4d2ff;fill-opacity:1;stroke:#d5d5d5;stroke-width:1.00695"
       id="rect3"
       width="61.422356"
       height="708.80255"
       x="1178.3756"
       y="212.51572"
       rx="15.012821"
       ry="13.539864" /><rect
       style="fill:#e4d2ff;fill-opacity:1;stroke:#d5d5d5;stroke-width:0.731362"
       id="rect4"
       width="920.0481"
       height="63.358208"
       x="194.67413"
       y="175.85236"
       rx="14.017828"
       ry="8.2972918" /><rect
       style="fill:#e4d2ff;fill-opacity:1;stroke:#d5d5d5;stroke-width:0.676773"
       id="rect5"
       width="84.996086"
       height="57.186852"
       x="1140.0247"
       y="973.28827"
       rx="10.968791"
       ry="9.7009859" /><rect
       style="fill:#e4d2ff;fill-opacity:1;stroke:#d5d5d5;stroke-width:0.887763"
       id="rect6"
       width="58.221062"
       height="308.1983"
       x="1267.5546"
       y="996.63721"
       rx="15.035672"
       ry="11.205943" /><path
       id="rect9"
       style="fill:#e4d2ff;fill-opacity:1;stroke:#d5d5d5"
       d="m 117.08642,312.37571 c -8.31,0 -15,6.69 -15,15 V 1045.198 c 0,8.3101 6.69,15 15,15 h 953.79098 c 8.31,0 15,-6.6899 15,-15 V 327.37571 c 0,-8.31 -6.69,-15 -15,-15 z m 72.78711,75.7207 h 808.21879 c 8.30998,0 14.99998,6.69 14.99998,15 v 566.37891 c 0,8.31 -6.69,15 -14.99998,15 H 189.87353 c -8.31,0 -15,-6.69 -15,-15 V 403.09641 c 0,-8.31 6.69,-15 15,-15 z" /><path
       d="M 792.67676,705.52028 619.09051,871.36632 a 34.303268,32.773685 0 0 1 -48.46758,0 L 392.58488,701.267 a 128.47714,122.74833 0 0 1 5.02082,-178.20614 c 49.87342,-43.01252 131.21058,-38.99908 181.18441,8.79438 l 16.0666,15.33419 20.51841,-19.60348 a 130.02779,124.22985 0 0 1 94.22392,-35.92905 127.56789,121.87964 0 0 1 92.24916,40.71 c 44.95293,47.68153 40.83587,125.35992 -9.17144,173.15338 z"
       id="path1"
       style="fill:#e4d2ff;fill-opacity:1;stroke-width:2.09391" /></g></svg>
