<?xml version="1.0" encoding="UTF-8" standalone="no"?>
<!-- Uploaded to: SVG Repo, www.svgrepo.com, Generator: SVG Repo Mixer Tools -->

<svg
   fill="#000000"
   width="800px"
   height="800px"
   viewBox="0 0 32 32"
   id="Camada_1"
   version="1.1"
   xml:space="preserve"
   sodipodi:docname="protonmail.svg"
   inkscape:version="1.4.2 (ebf0e940d0, 2025-05-08)"
   xmlns:inkscape="http://www.inkscape.org/namespaces/inkscape"
   xmlns:sodipodi="http://sodipodi.sourceforge.net/DTD/sodipodi-0.dtd"
   xmlns="http://www.w3.org/2000/svg"
   xmlns:svg="http://www.w3.org/2000/svg"><defs
     id="defs1" /><sodipodi:namedview
     id="namedview1"
     pagecolor="#ffffff"
     bordercolor="#000000"
     borderopacity="0.25"
     inkscape:showpageshadow="2"
     inkscape:pageopacity="0.0"
     inkscape:pagecheckerboard="0"
     inkscape:deskcolor="#d1d1d1"
     inkscape:zoom="1.4475"
     inkscape:cx="400.34542"
     inkscape:cy="400"
     inkscape:window-width="2560"
     inkscape:window-height="1364"
     inkscape:window-x="0"
     inkscape:window-y="0"
     inkscape:window-maximized="1"
     inkscape:current-layer="Camada_1" /><style
     type="text/css"
     id="style1">
	.st0{fill-rule:evenodd;clip-rule:evenodd;}
</style><path
     class="st0"
     d="M6.2,9v3.7l5.3,4.4c0.4,0.3,1,0.3,1.4,0l1.5-1.2c-0.2-0.1-0.3-0.2-0.5-0.3L6.2,9z M6.2,23.6v-8l3.9,3.3  c1.2,1,3,1,4.2,0l3.6-3l0,0c0.1-0.1,0.2-0.1,0.3-0.2l2.2-1.9v11H7.3C6.7,24.7,6.2,24.2,6.2,23.6z M22.5,24.7h2.2  c0.6,0,1.1-0.5,1.1-1.1V9l-3.3,2.8V24.7z M4,7.9c0-1.4,1.6-2.2,2.7-1.2l8.6,7.3c0.4,0.3,1,0.3,1.4,0l8.6-7.3C26.4,5.7,28,6.5,28,7.9  v15.7c0,1.8-1.5,3.3-3.3,3.3H7.3c-1.8,0-3.3-1.5-3.3-3.3V7.9z"
     id="path1"
     style="fill:#e4d2ff;fill-opacity:1" /></svg>
