<?xml version="1.0" encoding="UTF-8" standalone="no"?>
<!-- Uploaded to: SVG Repo, www.svgrepo.com, Generator: SVG Repo Mixer Tools -->

<svg
   fill="#000000"
   width="800px"
   height="800px"
   viewBox="0 0 32 32"
   id="Camada_1"
   version="1.1"
   xml:space="preserve"
   sodipodi:docname="protonmail.svg"
   inkscape:version="1.4.2 (ebf0e940d0, 2025-05-08)"
   xmlns:inkscape="http://www.inkscape.org/namespaces/inkscape"
   xmlns:sodipodi="http://sodipodi.sourceforge.net/DTD/sodipodi-0.dtd"
   xmlns="http://www.w3.org/2000/svg"
   xmlns:svg="http://www.w3.org/2000/svg"><defs
     id="defs1" /><sodipodi:namedview
     id="namedview1"
     pagecolor="#ffffff"
     bordercolor="#000000"
     borderopacity="0.25"
     inkscape:showpageshadow="2"
     inkscape:pageopacity="0.0"
     inkscape:pagecheckerboard="0"
     inkscape:deskcolor="#d1d1d1"
     inkscape:zoom="1.4475"
     inkscape:cx="400.34542"
     inkscape:cy="400"
     inkscape:window-width="2560"
     inkscape:window-height="1364"
     inkscape:window-x="0"
     inkscape:window-y="0"
     inkscape:window-maximized="1"
     inkscape:current-layer="Camada_1" /><style
     type="text/css"
     id="style1">
	.st0{fill-rule:evenodd;clip-rule:evenodd;}
</style><path
     class="st0"
     d="m 6.2,9 v 3.7 l 5.3,4.4 c 0.4,0.3 1,0.3 1.4,0 l 1.5,-1.2 c -0.2,-0.1 -0.3,-0.2 -0.5,-0.3 z m 16.3,15.7 h 2.2 c 0.6,0 1.1,-0.5 1.1,-1.1 V 9 l -3.3,2.8 z M 4,7.9 C 4,6.5 5.6,5.7 6.7,6.7 l 8.6,7.3 c 0.4,0.3 1,0.3 1.4,0 L 25.3,6.7 C 26.4,5.7 28,6.5 28,7.9 v 15.7 c 0,1.8 -1.5,3.3 -3.3,3.3 H 7.3 C 5.5,26.9 4,25.4 4,23.6 Z"
     id="path1"
     style="fill:#e4d2ff;fill-opacity:1"
     sodipodi:nodetypes="ccccccccsscccsccccssssss" /></svg>
